<?xml version="1.0" encoding="UTF-8" standalone="no"?>
<!DOCTYPE svg PUBLIC "-//W3C//DTD SVG 1.1//EN"
 "http://www.w3.org/Graphics/SVG/1.1/DTD/svg11.dtd">
<!-- Generated by graphviz version 2.43.0 (0)
 -->
<!-- Title: HPCFAIR Pages: 1 -->
<svg width="1896pt" height="671pt"
 viewBox="0.00 0.00 1895.50 671.00" xmlns="http://www.w3.org/2000/svg" xmlns:xlink="http://www.w3.org/1999/xlink">
<g id="graph0" class="graph" transform="scale(1 1) rotate(0) translate(4 667)">
<title>HPCFAIR</title>
<polygon fill="white" stroke="transparent" points="-4,4 -4,-667 1891.5,-667 1891.5,4 -4,4"/>
<!-- cls_User -->
<g id="node1" class="node">
<title>cls_User</title>
<text text-anchor="start" x="269" y="-642.3" font-family="Times,serif" font-size="14.00">User</text>
<text text-anchor="start" x="251" y="-621.3" font-family="Times,serif" font-size="14.00">username</text>
<text text-anchor="start" x="328" y="-621.3" font-family="Times,serif" font-size="14.00">string</text>
<text text-anchor="start" x="252" y="-600.3" font-family="Times,serif" font-size="14.00">password</text>
<text text-anchor="start" x="328" y="-600.3" font-family="Times,serif" font-size="14.00">string</text>
<text text-anchor="start" x="254.5" y="-579.3" font-family="Times,serif" font-size="14.00">is_admin</text>
<text text-anchor="start" x="334" y="-579.3" font-family="Times,serif" font-size="14.00">bool</text>
<text text-anchor="start" x="264.5" y="-558.3" font-family="Times,serif" font-size="14.00">joined</text>
<text text-anchor="start" x="332.5" y="-558.3" font-family="Times,serif" font-size="14.00">Date</text>
<text text-anchor="start" x="269.5" y="-537.3" font-family="Times,serif" font-size="14.00">seen</text>
<text text-anchor="start" x="332.5" y="-537.3" font-family="Times,serif" font-size="14.00">Date</text>
<text text-anchor="start" x="266.5" y="-516.3" font-family="Times,serif" font-size="14.00">email</text>
<text text-anchor="start" x="328.5" y="-516.3" font-family="Times,serif" font-size="14.00">Email</text>
<polygon fill="none" stroke="black" points="246,-508 246,-659 376,-659 376,-508 246,-508"/>
</g>
<!-- cls_Person -->
<g id="node2" class="node">
<title>cls_Person</title>
<text text-anchor="start" x="34" y="-432.3" font-family="Times,serif" font-size="14.00">Person</text>
<text text-anchor="start" x="13" y="-411.3" font-family="Times,serif" font-size="14.00">family_name</text>
<text text-anchor="start" x="110" y="-411.3" font-family="Times,serif" font-size="14.00">string</text>
<text text-anchor="start" x="16" y="-390.3" font-family="Times,serif" font-size="14.00">given_name</text>
<text text-anchor="start" x="110" y="-390.3" font-family="Times,serif" font-size="14.00">string</text>
<text text-anchor="start" x="33" y="-369.3" font-family="Times,serif" font-size="14.00">gender</text>
<text text-anchor="start" x="110" y="-369.3" font-family="Times,serif" font-size="14.00">string</text>
<text text-anchor="start" x="38.5" y="-348.3" font-family="Times,serif" font-size="14.00">suffix</text>
<text text-anchor="start" x="110" y="-348.3" font-family="Times,serif" font-size="14.00">string</text>
<text text-anchor="start" x="29.5" y="-327.3" font-family="Times,serif" font-size="14.00">job_title</text>
<text text-anchor="start" x="110" y="-327.3" font-family="Times,serif" font-size="14.00">string</text>
<text text-anchor="start" x="24.5" y="-306.3" font-family="Times,serif" font-size="14.00">affiliation</text>
<text text-anchor="start" x="110" y="-306.3" font-family="Times,serif" font-size="14.00">string</text>
<text text-anchor="start" x="18.5" y="-285.3" font-family="Times,serif" font-size="14.00">member_of</text>
<text text-anchor="start" x="110" y="-285.3" font-family="Times,serif" font-size="14.00">string</text>
<text text-anchor="start" x="21.5" y="-264.3" font-family="Times,serif" font-size="14.00">homepage</text>
<text text-anchor="start" x="115.5" y="-264.3" font-family="Times,serif" font-size="14.00">URL</text>
<polygon fill="none" stroke="black" points="8,-256 8,-449 158,-449 158,-256 8,-256"/>
</g>
<!-- cls_User&#45;&gt;cls_Person -->
<g id="edge1" class="edge">
<title>cls_User&#45;&gt;cls_Person</title>
<path fill="none" stroke="black" stroke-dasharray="5,2" d="M237.92,-509.1C217.44,-488.53 194.93,-465.92 173.57,-444.46"/>
<polygon fill="black" stroke="black" points="175.91,-441.85 166.37,-437.24 170.95,-446.79 175.91,-441.85"/>
<text text-anchor="middle" x="239" y="-474.8" font-family="Times,serif" font-size="14.00">identity</text>
</g>
<!-- cls_HLO -->
<g id="node3" class="node">
<title>cls_HLO</title>
<text text-anchor="start" x="565.5" y="-632.3" font-family="Times,serif" font-size="14.00">HLO</text>
<text text-anchor="start" x="567.5" y="-611.3" font-family="Times,serif" font-size="14.00">UID</text>
<text text-anchor="start" x="632" y="-611.3" font-family="Times,serif" font-size="14.00">string</text>
<text text-anchor="start" x="556" y="-590.3" font-family="Times,serif" font-size="14.00">id_type</text>
<text text-anchor="start" x="632" y="-590.3" font-family="Times,serif" font-size="14.00">string</text>
<text text-anchor="start" x="567" y="-569.3" font-family="Times,serif" font-size="14.00">title</text>
<text text-anchor="start" x="632" y="-569.3" font-family="Times,serif" font-size="14.00">string</text>
<text text-anchor="start" x="541.5" y="-548.3" font-family="Times,serif" font-size="14.00">description</text>
<text text-anchor="start" x="632" y="-548.3" font-family="Times,serif" font-size="14.00">string</text>
<text text-anchor="start" x="538" y="-527.3" font-family="Times,serif" font-size="14.00">submit_date</text>
<text text-anchor="start" x="636.5" y="-527.3" font-family="Times,serif" font-size="14.00">Date</text>
<polygon fill="none" stroke="black" points="532.5,-518.5 532.5,-648.5 679.5,-648.5 679.5,-518.5 532.5,-518.5"/>
</g>
<!-- cls_HLO&#45;&gt;cls_User -->
<g id="edge2" class="edge">
<title>cls_HLO&#45;&gt;cls_User</title>
<path fill="none" stroke="black" stroke-dasharray="5,2" d="M524.24,-583.5C483.81,-583.5 435.1,-583.5 394.45,-583.5"/>
<polygon fill="black" stroke="black" points="394.3,-580 384.3,-583.5 394.3,-587 394.3,-580"/>
<text text-anchor="middle" x="454.25" y="-590.3" font-family="Times,serif" font-size="14.00">submitter</text>
</g>
<!-- cls_HLO&#45;&gt;cls_Person -->
<g id="edge3" class="edge">
<title>cls_HLO&#45;&gt;cls_Person</title>
<path fill="none" stroke="black" d="M524.41,-552.16C484.79,-537.49 436.46,-519.7 393,-504 329.15,-480.93 310.42,-481.93 249,-453 224.23,-441.33 198.41,-427.01 174.71,-412.91"/>
<polygon fill="black" stroke="black" points="176.46,-409.87 166.09,-407.73 172.86,-415.87 176.46,-409.87"/>
</g>
<!-- cls_Project -->
<g id="node4" class="node">
<title>cls_Project</title>
<text text-anchor="start" x="301" y="-422.3" font-family="Times,serif" font-size="14.00">Project</text>
<text text-anchor="start" x="277" y="-401.3" font-family="Times,serif" font-size="14.00">program_area</text>
<text text-anchor="start" x="392.5" y="-401.3" font-family="Times,serif" font-size="14.00">string</text>
<text text-anchor="start" x="274" y="-380.3" font-family="Times,serif" font-size="14.00">award_amount</text>
<text text-anchor="start" x="404" y="-380.3" font-family="Times,serif" font-size="14.00">int</text>
<text text-anchor="start" x="271" y="-359.3" font-family="Times,serif" font-size="14.00">funding_agency</text>
<text text-anchor="start" x="392.5" y="-359.3" font-family="Times,serif" font-size="14.00">string</text>
<text text-anchor="start" x="290.5" y="-338.3" font-family="Times,serif" font-size="14.00">start_date</text>
<text text-anchor="start" x="397" y="-338.3" font-family="Times,serif" font-size="14.00">Date</text>
<text text-anchor="start" x="294.5" y="-317.3" font-family="Times,serif" font-size="14.00">end_date</text>
<text text-anchor="start" x="397" y="-317.3" font-family="Times,serif" font-size="14.00">Date</text>
<text text-anchor="start" x="311" y="-296.3" font-family="Times,serif" font-size="14.00">URL</text>
<text text-anchor="start" x="398" y="-296.3" font-family="Times,serif" font-size="14.00">URL</text>
<text text-anchor="start" x="283" y="-275.3" font-family="Times,serif" font-size="14.00">publications</text>
<text text-anchor="start" x="389" y="-275.3" font-family="Times,serif" font-size="14.00">[&#39;URL&#39;]</text>
<polygon fill="none" stroke="black" points="266,-266.5 266,-438.5 444,-438.5 444,-266.5 266,-266.5"/>
</g>
<!-- cls_HLO&#45;&gt;cls_Project -->
<g id="edge4" class="edge">
<title>cls_HLO&#45;&gt;cls_Project</title>
<path fill="none" stroke="black" d="M524.28,-553.57C460.5,-530.23 381.05,-499.2 371,-486 363.47,-476.11 358.39,-464.54 355.07,-452.44"/>
<polygon fill="black" stroke="black" points="358.46,-451.57 352.77,-442.64 351.65,-453.17 358.46,-451.57"/>
</g>
<!-- cls_Hardware -->
<g id="node7" class="node">
<title>cls_Hardware</title>
<text text-anchor="start" x="484" y="-359.3" font-family="Times,serif" font-size="14.00">Hardware</text>
<text text-anchor="start" x="495" y="-338.3" font-family="Times,serif" font-size="14.00">vendor</text>
<text text-anchor="start" x="562" y="-338.3" font-family="Times,serif" font-size="14.00">string</text>
<polygon fill="none" stroke="black" points="478.5,-329.5 478.5,-375.5 609.5,-375.5 609.5,-329.5 478.5,-329.5"/>
</g>
<!-- cls_HLO&#45;&gt;cls_Hardware -->
<g id="edge9" class="edge">
<title>cls_HLO&#45;&gt;cls_Hardware</title>
<path fill="none" stroke="black" d="M600.34,-514.44C598.34,-499.97 595.64,-484.87 592,-471 584.57,-442.65 571.9,-412.04 561.45,-389.18"/>
<polygon fill="black" stroke="black" points="564.51,-387.47 557.12,-379.88 558.17,-390.42 564.51,-387.47"/>
</g>
<!-- cls_Activity -->
<g id="node11" class="node">
<title>cls_Activity</title>
<text text-anchor="start" x="688" y="-411.3" font-family="Times,serif" font-size="14.00">Activity</text>
<text text-anchor="start" x="649" y="-390.3" font-family="Times,serif" font-size="14.00">activity_start_date</text>
<text text-anchor="start" x="792.5" y="-390.3" font-family="Times,serif" font-size="14.00">Date</text>
<text text-anchor="start" x="653" y="-369.3" font-family="Times,serif" font-size="14.00">activity_end_date</text>
<text text-anchor="start" x="792.5" y="-369.3" font-family="Times,serif" font-size="14.00">Date</text>
<text text-anchor="start" x="666.5" y="-348.3" font-family="Times,serif" font-size="14.00">command_file</text>
<text text-anchor="start" x="788" y="-348.3" font-family="Times,serif" font-size="14.00">string</text>
<text text-anchor="start" x="686.5" y="-327.3" font-family="Times,serif" font-size="14.00">actor_id</text>
<text text-anchor="start" x="788" y="-327.3" font-family="Times,serif" font-size="14.00">string</text>
<text text-anchor="start" x="684" y="-306.3" font-family="Times,serif" font-size="14.00">software</text>
<text text-anchor="start" x="788" y="-306.3" font-family="Times,serif" font-size="14.00">string</text>
<text text-anchor="start" x="681" y="-285.3" font-family="Times,serif" font-size="14.00">hardware</text>
<text text-anchor="start" x="788" y="-285.3" font-family="Times,serif" font-size="14.00">string</text>
<polygon fill="none" stroke="black" points="644,-277 644,-428 836,-428 836,-277 644,-277"/>
</g>
<!-- cls_HLO&#45;&gt;cls_Activity -->
<g id="edge13" class="edge">
<title>cls_HLO&#45;&gt;cls_Activity</title>
<path fill="none" stroke="black" d="M687.53,-528.29C700.96,-515.9 713.3,-501.7 722,-486 729.38,-472.67 734.16,-457.47 737.19,-442.23"/>
<polygon fill="black" stroke="black" points="740.67,-442.69 738.94,-432.23 733.77,-441.48 740.67,-442.69"/>
</g>
<!-- cls_Data -->
<g id="node12" class="node">
<title>cls_Data</title>
<text text-anchor="start" x="1240" y="-401.3" font-family="Times,serif" font-size="14.00">Data</text>
<text text-anchor="start" x="1232" y="-380.3" font-family="Times,serif" font-size="14.00">license</text>
<text text-anchor="start" x="1331" y="-380.3" font-family="Times,serif" font-size="14.00">string</text>
<text text-anchor="start" x="1230.5" y="-359.3" font-family="Times,serif" font-size="14.00">version</text>
<text text-anchor="start" x="1331" y="-359.3" font-family="Times,serif" font-size="14.00">string</text>
<text text-anchor="start" x="1219.5" y="-338.3" font-family="Times,serif" font-size="14.00">source_url</text>
<text text-anchor="start" x="1336.5" y="-338.3" font-family="Times,serif" font-size="14.00">URL</text>
<text text-anchor="start" x="1189" y="-317.3" font-family="Times,serif" font-size="14.00">publicly_accessible</text>
<text text-anchor="start" x="1337" y="-317.3" font-family="Times,serif" font-size="14.00">bool</text>
<text text-anchor="start" x="1231" y="-296.3" font-family="Times,serif" font-size="14.00">subject</text>
<text text-anchor="start" x="1331" y="-296.3" font-family="Times,serif" font-size="14.00">string</text>
<polygon fill="none" stroke="black" points="1183.5,-287.5 1183.5,-417.5 1378.5,-417.5 1378.5,-287.5 1183.5,-287.5"/>
</g>
<!-- cls_HLO&#45;&gt;cls_Data -->
<g id="edge19" class="edge">
<title>cls_HLO&#45;&gt;cls_Data</title>
<path fill="none" stroke="black" d="M687.76,-554.76C807.13,-514.27 1029.66,-438.77 1165.64,-392.64"/>
<polygon fill="black" stroke="black" points="1166.93,-395.89 1175.28,-389.37 1164.69,-389.26 1166.93,-395.89"/>
</g>
<!-- cls_Project&#45;&gt;cls_Person -->
<g id="edge5" class="edge">
<title>cls_Project&#45;&gt;cls_Person</title>
<path fill="none" stroke="black" stroke-dasharray="5,2" d="M257.65,-335.35C239.83,-333.79 221.38,-333.21 204,-334.5 194.98,-335.17 185.61,-336.11 176.26,-337.22"/>
<polygon fill="black" stroke="black" points="175.62,-333.77 166.14,-338.48 176.49,-340.72 175.62,-333.77"/>
<text text-anchor="middle" x="212" y="-338.3" font-family="Times,serif" font-size="14.00">PI</text>
</g>
<!-- cls_Project&#45;&gt;cls_Person -->
<g id="edge6" class="edge">
<title>cls_Project&#45;&gt;cls_Person</title>
<path fill="none" stroke="black" stroke-dasharray="5,2" d="M257.62,-352.5C231.18,-352.5 202.61,-352.5 176.39,-352.5"/>
<polygon fill="black" stroke="black" points="176.09,-349 166.09,-352.5 176.09,-356 176.09,-349"/>
<text text-anchor="middle" x="212" y="-359.3" font-family="Times,serif" font-size="14.00">members*</text>
</g>
<!-- cls_Dataset -->
<g id="node5" class="node">
<title>cls_Dataset</title>
<text text-anchor="start" x="827" y="-96.3" font-family="Times,serif" font-size="14.00">Dataset</text>
<polygon fill="none" stroke="black" points="822,-88 822,-113 888,-113 888,-88 822,-88"/>
</g>
<!-- cls_Project&#45;&gt;cls_Dataset -->
<g id="edge7" class="edge">
<title>cls_Project&#45;&gt;cls_Dataset</title>
<path fill="none" stroke="black" stroke-dasharray="5,2" d="M259.54,-262.26C253.05,-247.09 253.38,-232.05 266,-219 307.58,-176.01 753.49,-233.04 804,-201 829.27,-184.97 842.6,-152.15 849.21,-128.59"/>
<polygon fill="black" stroke="black" points="852.62,-129.38 851.72,-118.82 845.84,-127.64 852.62,-129.38"/>
<text text-anchor="middle" x="300" y="-222.8" font-family="Times,serif" font-size="14.00">datasets*</text>
</g>
<!-- cls_Model -->
<g id="node6" class="node">
<title>cls_Model</title>
<text text-anchor="start" x="1122" y="-180.3" font-family="Times,serif" font-size="14.00">Model</text>
<text text-anchor="start" x="1095" y="-159.3" font-family="Times,serif" font-size="14.00">model_format</text>
<text text-anchor="start" x="1265" y="-159.3" font-family="Times,serif" font-size="14.00">string</text>
<text text-anchor="start" x="1108" y="-138.3" font-family="Times,serif" font-size="14.00">is_tunable</text>
<text text-anchor="start" x="1271" y="-138.3" font-family="Times,serif" font-size="14.00">bool</text>
<text text-anchor="start" x="1103" y="-117.3" font-family="Times,serif" font-size="14.00">parameters</text>
<text text-anchor="start" x="1256" y="-117.3" font-family="Times,serif" font-size="14.00">[&#39;string&#39;]</text>
<text text-anchor="start" x="1039" y="-96.3" font-family="Times,serif" font-size="14.00">machine_learning_framework</text>
<text text-anchor="start" x="1265" y="-96.3" font-family="Times,serif" font-size="14.00">string</text>
<text text-anchor="start" x="1103.5" y="-75.3" font-family="Times,serif" font-size="14.00">model_type</text>
<text text-anchor="start" x="1256" y="-75.3" font-family="Times,serif" font-size="14.00">[&#39;string&#39;]</text>
<text text-anchor="start" x="1073" y="-54.3" font-family="Times,serif" font-size="14.00">accelerator_support</text>
<text text-anchor="start" x="1271" y="-54.3" font-family="Times,serif" font-size="14.00">bool</text>
<text text-anchor="start" x="1112.5" y="-33.3" font-family="Times,serif" font-size="14.00">accuracy</text>
<text text-anchor="start" x="1270.5" y="-33.3" font-family="Times,serif" font-size="14.00">float</text>
<text text-anchor="start" x="1111" y="-12.3" font-family="Times,serif" font-size="14.00">overhead</text>
<text text-anchor="start" x="1270.5" y="-12.3" font-family="Times,serif" font-size="14.00">float</text>
<polygon fill="none" stroke="black" points="1034,-4 1034,-197 1322,-197 1322,-4 1034,-4"/>
</g>
<!-- cls_Project&#45;&gt;cls_Model -->
<g id="edge8" class="edge">
<title>cls_Project&#45;&gt;cls_Model</title>
<path fill="none" stroke="black" stroke-dasharray="5,2" d="M444.4,-262.42C449.84,-258.66 455.39,-255.15 461,-252 634.25,-154.85 710.43,-240.95 905,-201 941.74,-193.46 980.17,-181.9 1016.21,-169.3"/>
<polygon fill="black" stroke="black" points="1017.55,-172.54 1025.81,-165.9 1015.22,-165.94 1017.55,-172.54"/>
<text text-anchor="middle" x="558" y="-222.8" font-family="Times,serif" font-size="14.00">models*</text>
</g>
<!-- cls_Model&#45;&gt;cls_Dataset -->
<g id="edge32" class="edge">
<title>cls_Model&#45;&gt;cls_Dataset</title>
<path fill="none" stroke="black" stroke-dasharray="5,2" d="M1025.86,-100.5C982.83,-100.5 938.92,-100.5 906.38,-100.5"/>
<polygon fill="black" stroke="black" points="906.24,-97 896.24,-100.5 906.24,-104 906.24,-97"/>
<text text-anchor="middle" x="961" y="-107.3" font-family="Times,serif" font-size="14.00">input_datasets*</text>
</g>
<!-- cls_Workstation -->
<g id="node8" class="node">
<title>cls_Workstation</title>
<text text-anchor="start" x="387" y="-96.3" font-family="Times,serif" font-size="14.00">Workstation</text>
<polygon fill="none" stroke="black" points="381.5,-88 381.5,-113 478.5,-113 478.5,-88 381.5,-88"/>
</g>
<!-- cls_Hardware&#45;&gt;cls_Workstation -->
<g id="edge10" class="edge">
<title>cls_Hardware&#45;&gt;cls_Workstation</title>
<path fill="none" stroke="black" d="M532.02,-325.22C510.14,-277.25 463.98,-176.03 442.06,-127.94"/>
<polygon fill="black" stroke="black" points="445.22,-126.44 437.89,-118.79 438.85,-129.34 445.22,-126.44"/>
</g>
<!-- cls_Node -->
<g id="node9" class="node">
<title>cls_Node</title>
<text text-anchor="start" x="518" y="-96.3" font-family="Times,serif" font-size="14.00">Node</text>
<polygon fill="none" stroke="black" points="513,-88 513,-113 561,-113 561,-88 513,-88"/>
</g>
<!-- cls_Hardware&#45;&gt;cls_Node -->
<g id="edge11" class="edge">
<title>cls_Hardware&#45;&gt;cls_Node</title>
<path fill="none" stroke="black" d="M543.26,-325.22C541.93,-277.55 539.12,-177.29 537.77,-128.85"/>
<polygon fill="black" stroke="black" points="541.26,-128.69 537.48,-118.79 534.27,-128.89 541.26,-128.69"/>
</g>
<!-- cls_Cluster -->
<g id="node10" class="node">
<title>cls_Cluster</title>
<text text-anchor="start" x="601" y="-96.3" font-family="Times,serif" font-size="14.00">Cluster</text>
<polygon fill="none" stroke="black" points="595.5,-88 595.5,-113 658.5,-113 658.5,-88 595.5,-88"/>
</g>
<!-- cls_Hardware&#45;&gt;cls_Cluster -->
<g id="edge12" class="edge">
<title>cls_Hardware&#45;&gt;cls_Cluster</title>
<path fill="none" stroke="black" d="M552.73,-325.22C568.58,-277.45 601.98,-176.87 618.02,-128.55"/>
<polygon fill="black" stroke="black" points="621.43,-129.39 621.26,-118.79 614.79,-127.18 621.43,-129.39"/>
</g>
<!-- cls_Activity&#45;&gt;cls_Project -->
<g id="edge17" class="edge">
<title>cls_Activity&#45;&gt;cls_Project</title>
<path fill="none" stroke="black" stroke-dasharray="5,2" d="M661.38,-432.02C650.18,-440.18 638.27,-447.49 626,-453 624.49,-453.68 498.54,-476.64 470,-465 459.6,-460.76 449.63,-455.07 440.21,-448.5"/>
<polygon fill="black" stroke="black" points="442.2,-445.62 432.07,-442.51 438.05,-451.26 442.2,-445.62"/>
<text text-anchor="middle" x="499" y="-474.8" font-family="Times,serif" font-size="14.00">project*</text>
</g>
<!-- cls_Activity&#45;&gt;cls_Activity -->
<g id="edge14" class="edge">
<title>cls_Activity&#45;&gt;cls_Activity</title>
<path fill="none" stroke="black" stroke-dasharray="5,2" d="M844.13,-372.07C855.02,-368.25 862,-361.73 862,-352.5 862,-346.3 858.85,-341.32 853.48,-337.56"/>
<polygon fill="black" stroke="black" points="854.64,-334.23 844.13,-332.93 851.53,-340.5 854.64,-334.23"/>
<text text-anchor="middle" x="909.5" y="-348.8" font-family="Times,serif" font-size="14.00">prerequisite*</text>
</g>
<!-- cls_Activity&#45;&gt;cls_Data -->
<g id="edge15" class="edge">
<title>cls_Activity&#45;&gt;cls_Data</title>
<path fill="none" stroke="black" stroke-dasharray="5,2" d="M844.2,-342.62C883.65,-339.34 928.98,-336.11 970.25,-334.5 1034.82,-331.98 1106.87,-335.74 1165.33,-340.47"/>
<polygon fill="black" stroke="black" points="1165.08,-343.96 1175.33,-341.3 1165.66,-336.98 1165.08,-343.96"/>
<text text-anchor="middle" x="1009.75" y="-338.3" font-family="Times,serif" font-size="14.00">inputData*</text>
</g>
<!-- cls_Activity&#45;&gt;cls_Data -->
<g id="edge16" class="edge">
<title>cls_Activity&#45;&gt;cls_Data</title>
<path fill="none" stroke="black" stroke-dasharray="5,2" d="M844.31,-352.5C936.15,-352.5 1069.72,-352.5 1164.91,-352.5"/>
<polygon fill="black" stroke="black" points="1165.16,-356 1175.16,-352.5 1165.16,-349 1165.16,-356"/>
<text text-anchor="middle" x="1009.75" y="-359.3" font-family="Times,serif" font-size="14.00">outputData*</text>
</g>
<!-- cls_Experiment -->
<g id="node13" class="node">
<title>cls_Experiment</title>
<text text-anchor="start" x="698" y="-96.3" font-family="Times,serif" font-size="14.00">Experiment</text>
<polygon fill="none" stroke="black" points="692.5,-88 692.5,-113 787.5,-113 787.5,-88 692.5,-88"/>
</g>
<!-- cls_Activity&#45;&gt;cls_Experiment -->
<g id="edge18" class="edge">
<title>cls_Activity&#45;&gt;cls_Experiment</title>
<path fill="none" stroke="black" d="M740,-272.74C740,-223.67 740,-163.52 740,-129.14"/>
<polygon fill="black" stroke="black" points="743.5,-128.93 740,-118.93 736.5,-128.93 743.5,-128.93"/>
</g>
<!-- cls_Data&#45;&gt;cls_Person -->
<g id="edge20" class="edge">
<title>cls_Data&#45;&gt;cls_Person</title>
<path fill="none" stroke="black" stroke-dasharray="5,2" d="M1175.35,-394.53C1115.06,-416.39 1037.47,-441 966,-453 771.19,-485.71 557.74,-473.68 375,-465 318.81,-462.33 302.4,-470.68 249,-453 223.76,-444.64 198.31,-431.89 175.17,-418.24"/>
<polygon fill="black" stroke="black" points="176.79,-415.13 166.42,-412.98 173.18,-421.13 176.79,-415.13"/>
<text text-anchor="middle" x="419" y="-474.8" font-family="Times,serif" font-size="14.00">contributor*</text>
</g>
<!-- cls_Data&#45;&gt;cls_Project -->
<g id="edge25" class="edge">
<title>cls_Data&#45;&gt;cls_Project</title>
<path fill="none" stroke="black" stroke-dasharray="5,2" d="M1175.31,-394.31C1115.01,-416.1 1037.42,-440.71 966,-453 689.99,-500.5 653.14,-474.94 533,-465 500.67,-462.32 490.04,-467.46 461,-453 457.84,-451.43 454.71,-449.73 451.62,-447.92"/>
<polygon fill="black" stroke="black" points="453.34,-444.87 443,-442.56 449.64,-450.81 453.34,-444.87"/>
<text text-anchor="middle" x="562" y="-474.8" font-family="Times,serif" font-size="14.00">project*</text>
</g>
<!-- cls_Data&#45;&gt;cls_Dataset -->
<g id="edge30" class="edge">
<title>cls_Data&#45;&gt;cls_Dataset</title>
<path fill="none" stroke="black" d="M1175.06,-318.42C1074.43,-286.68 936.99,-242.36 927,-234 893.59,-206.05 873.2,-158.46 863.01,-128.57"/>
<polygon fill="black" stroke="black" points="866.25,-127.22 859.83,-118.79 859.6,-129.39 866.25,-127.22"/>
</g>
<!-- cls_Data&#45;&gt;cls_Model -->
<g id="edge31" class="edge">
<title>cls_Data&#45;&gt;cls_Model</title>
<path fill="none" stroke="black" d="M1175.25,-318.65C1076.88,-287.6 944.34,-244.27 937,-234 903.98,-187.82 953.61,-155.96 1016.25,-135.07"/>
<polygon fill="black" stroke="black" points="1017.54,-138.33 1025.99,-131.94 1015.4,-131.67 1017.54,-138.33"/>
</g>
<!-- cls_Data&#45;&gt;cls_Hardware -->
<g id="edge22" class="edge">
<title>cls_Data&#45;&gt;cls_Hardware</title>
<path fill="none" stroke="black" stroke-dasharray="5,2" d="M1175.23,-393.86C1114.91,-415.51 1037.32,-440.13 966,-453 857.4,-472.6 828.32,-462.33 718,-465 684.23,-465.82 673.87,-476.18 642,-465 605.61,-452.23 578.4,-416.26 562,-388.4"/>
<polygon fill="black" stroke="black" points="565.03,-386.65 557.06,-379.68 558.94,-390.1 565.03,-386.65"/>
<text text-anchor="middle" x="680" y="-474.8" font-family="Times,serif" font-size="14.00">hardware*</text>
</g>
<!-- cls_Data&#45;&gt;cls_Experiment -->
<g id="edge27" class="edge">
<title>cls_Data&#45;&gt;cls_Experiment</title>
<path fill="none" stroke="black" stroke-dasharray="5,2" d="M1175.43,-318.15C1035.27,-273.87 805.24,-201.18 805,-201 779.94,-181.98 761.68,-150.33 751,-127.84"/>
<polygon fill="black" stroke="black" points="754.09,-126.18 746.77,-118.52 747.72,-129.08 754.09,-126.18"/>
<text text-anchor="middle" x="1002.5" y="-222.8" font-family="Times,serif" font-size="14.00">generated_experiment_id*</text>
</g>
<!-- cls_Data&#45;&gt;cls_Experiment -->
<g id="edge28" class="edge">
<title>cls_Data&#45;&gt;cls_Experiment</title>
<path fill="none" stroke="black" stroke-dasharray="5,2" d="M1208.72,-283.47C1177.89,-258.61 1140.04,-233.15 1101,-219 1039.04,-196.55 861.98,-234.11 805,-201 777.37,-184.94 759.38,-151.9 749.48,-128.3"/>
<polygon fill="black" stroke="black" points="752.67,-126.84 745.73,-118.84 746.16,-129.42 752.67,-126.84"/>
<text text-anchor="middle" x="1210" y="-222.8" font-family="Times,serif" font-size="14.00">used_experiment_id*</text>
</g>
<!-- cls_Software -->
<g id="node14" class="node">
<title>cls_Software</title>
<text text-anchor="start" x="1414.5" y="-149.3" font-family="Times,serif" font-size="14.00">Software</text>
<text text-anchor="start" x="1362" y="-128.3" font-family="Times,serif" font-size="14.00">programming_language</text>
<text text-anchor="start" x="1547" y="-128.3" font-family="Times,serif" font-size="14.00">string</text>
<text text-anchor="start" x="1383.5" y="-107.3" font-family="Times,serif" font-size="14.00">operating_system</text>
<text text-anchor="start" x="1538" y="-107.3" font-family="Times,serif" font-size="14.00">[&#39;string&#39;]</text>
<text text-anchor="start" x="1383.5" y="-86.3" font-family="Times,serif" font-size="14.00">first_release_date</text>
<text text-anchor="start" x="1551.5" y="-86.3" font-family="Times,serif" font-size="14.00">Date</text>
<text text-anchor="start" x="1378" y="-65.3" font-family="Times,serif" font-size="14.00">latest_release_date</text>
<text text-anchor="start" x="1551.5" y="-65.3" font-family="Times,serif" font-size="14.00">Date</text>
<text text-anchor="start" x="1422" y="-44.3" font-family="Times,serif" font-size="14.00">vendor</text>
<text text-anchor="start" x="1547" y="-44.3" font-family="Times,serif" font-size="14.00">string</text>
<polygon fill="none" stroke="black" points="1356.5,-35.5 1356.5,-165.5 1603.5,-165.5 1603.5,-35.5 1356.5,-35.5"/>
</g>
<!-- cls_Data&#45;&gt;cls_Software -->
<g id="edge21" class="edge">
<title>cls_Data&#45;&gt;cls_Software</title>
<path fill="none" stroke="black" stroke-dasharray="5,2" d="M1305.64,-283.29C1315.2,-261.61 1327.39,-238.28 1342,-219 1353.33,-204.05 1366.86,-189.69 1380.96,-176.46"/>
<polygon fill="black" stroke="black" points="1383.38,-178.99 1388.38,-169.65 1378.65,-173.83 1383.38,-178.99"/>
<text text-anchor="middle" x="1377" y="-222.8" font-family="Times,serif" font-size="14.00">software*</text>
</g>
<!-- cls_Data&#45;&gt;cls_Software -->
<g id="edge24" class="edge">
<title>cls_Data&#45;&gt;cls_Software</title>
<path fill="none" stroke="black" stroke-dasharray="5,2" d="M1366.27,-283.33C1382.55,-268.1 1398.66,-251.3 1412,-234 1424.95,-217.21 1436.58,-197.58 1446.41,-178.65"/>
<polygon fill="black" stroke="black" points="1449.53,-180.22 1450.94,-169.72 1443.29,-177.05 1449.53,-180.22"/>
<text text-anchor="middle" x="1441" y="-222.8" font-family="Times,serif" font-size="14.00">feed*</text>
</g>
<!-- cls_Data&#45;&gt;cls_Software -->
<g id="edge34" class="edge">
<title>cls_Data&#45;&gt;cls_Software</title>
<path fill="none" stroke="black" d="M1386.88,-305.14C1416.41,-287.13 1445.45,-263.59 1464,-234 1474.07,-217.94 1479.34,-198.62 1481.84,-179.76"/>
<polygon fill="black" stroke="black" points="1485.34,-179.97 1482.94,-169.65 1478.38,-179.22 1485.34,-179.97"/>
</g>
<!-- cls_File -->
<g id="node15" class="node">
<title>cls_File</title>
<text text-anchor="start" x="1664.5" y="-138.3" font-family="Times,serif" font-size="14.00">File</text>
<text text-anchor="start" x="1644.5" y="-117.3" font-family="Times,serif" font-size="14.00">file_name</text>
<text text-anchor="start" x="1720" y="-117.3" font-family="Times,serif" font-size="14.00">string</text>
<text text-anchor="start" x="1664.5" y="-96.3" font-family="Times,serif" font-size="14.00">size</text>
<text text-anchor="start" x="1726" y="-96.3" font-family="Times,serif" font-size="14.00">long</text>
<text text-anchor="start" x="1654" y="-75.3" font-family="Times,serif" font-size="14.00">format</text>
<text text-anchor="start" x="1720" y="-75.3" font-family="Times,serif" font-size="14.00">string</text>
<text text-anchor="start" x="1643" y="-54.3" font-family="Times,serif" font-size="14.00">checksum</text>
<text text-anchor="start" x="1720" y="-54.3" font-family="Times,serif" font-size="14.00">string</text>
<polygon fill="none" stroke="black" points="1638,-46 1638,-155 1768,-155 1768,-46 1638,-46"/>
</g>
<!-- cls_Data&#45;&gt;cls_File -->
<g id="edge23" class="edge">
<title>cls_Data&#45;&gt;cls_File</title>
<path fill="none" stroke="black" stroke-dasharray="5,2" d="M1386.63,-318.77C1457.12,-293.66 1549.47,-254.25 1620,-201 1632.86,-191.29 1645.02,-179.22 1655.87,-166.88"/>
<polygon fill="black" stroke="black" points="1658.62,-169.05 1662.45,-159.18 1653.29,-164.51 1658.62,-169.05"/>
<text text-anchor="middle" x="1602.5" y="-222.8" font-family="Times,serif" font-size="14.00">file*</text>
</g>
<!-- cls_Data&#45;&gt;cls_File -->
<g id="edge29" class="edge">
<title>cls_Data&#45;&gt;cls_File</title>
<path fill="none" stroke="black" d="M1386.66,-334.28C1458.8,-318.21 1553.21,-288.23 1621,-234 1642.82,-216.54 1660.39,-191.6 1673.57,-168.05"/>
<polygon fill="black" stroke="black" points="1676.73,-169.58 1678.41,-159.12 1670.57,-166.24 1676.73,-169.58"/>
</g>
<!-- cls_Workflow -->
<g id="node16" class="node">
<title>cls_Workflow</title>
<text text-anchor="start" x="1808" y="-96.3" font-family="Times,serif" font-size="14.00">Workflow</text>
<polygon fill="none" stroke="black" points="1802.5,-88 1802.5,-113 1879.5,-113 1879.5,-88 1802.5,-88"/>
</g>
<!-- cls_Data&#45;&gt;cls_Workflow -->
<g id="edge26" class="edge">
<title>cls_Data&#45;&gt;cls_Workflow</title>
<path fill="none" stroke="black" stroke-dasharray="5,2" d="M1386.64,-324.48C1524.91,-288.43 1753.45,-226.21 1785,-201 1808.5,-182.22 1823.82,-150.74 1832.4,-128.22"/>
<polygon fill="black" stroke="black" points="1835.77,-129.17 1835.87,-118.58 1829.19,-126.8 1835.77,-129.17"/>
<text text-anchor="middle" x="1780" y="-222.8" font-family="Times,serif" font-size="14.00">workflow*</text>
</g>
<!-- cls_Data&#45;&gt;cls_Workflow -->
<g id="edge33" class="edge">
<title>cls_Data&#45;&gt;cls_Workflow</title>
<path fill="none" stroke="black" d="M1386.68,-342.44C1526.42,-328.21 1761.81,-295.63 1820,-234 1846.49,-205.95 1847.49,-158.72 1844.9,-128.88"/>
<polygon fill="black" stroke="black" points="1848.36,-128.31 1843.82,-118.74 1841.39,-129.05 1848.36,-128.31"/>
</g>
<!-- cls_Software&#45;&gt;cls_Hardware -->
<g id="edge35" class="edge">
<title>cls_Software&#45;&gt;cls_Hardware</title>
<path fill="none" stroke="black" stroke-dasharray="5,2" d="M1400.16,-169.66C1381.22,-182.35 1360.3,-193.85 1339,-201 1281.88,-220.18 856.87,-212.24 797,-219 720.52,-227.64 693.26,-212.85 627,-252 600.67,-267.56 578.9,-294.65 564.27,-316.64"/>
<polygon fill="black" stroke="black" points="561.3,-314.79 558.82,-325.09 567.18,-318.58 561.3,-314.79"/>
<text text-anchor="middle" x="829" y="-222.8" font-family="Times,serif" font-size="14.00">runs_on*</text>
</g>
</g>
</svg>
